# xmcd CD database file
#
# Track frame offsets:
#	150
#	15268
#	28845
#	40910
#	55238
#	71775
#	86237
#	99838
#	115208
#	129854
#	142307
#	157905
#	170689
#	185002
#	199312
#	212783
#	226959
#	240549
#	254063
#	267455
#	281709
#	295239
#	308798
#	322487
#	337225
#
# Disc length: 4687 seconds
#
# Revision: 0
# Processed by: cddbd v1.5.2PL0 Copyright (c) Steve Scherf et al.
# Submitted via: CDex 1.51
#
DISCID=8d124d19
DTITLE=Various Artist - Bottleneck Blues Anthology
DYEAR=2011
DGENRE=Blues
TTITLE0=Dark Was The Night (Cold Was The Ground) - Blind Willie Johnson
TTITLE1=Rock Pile Blues - Sylvester Weaver
TTITLE2=Cross Road Blues - Robert Johnson
TTITLE3=The Twleves - Kokomo Arnold
TTITLE4=Canned Heat Blues - Tommy Johnson
TTITLE5=Goin' Up The Country - Barbecue Bob
TTITLE6=B and O Blues No. 2 - Blind Willie McTell
TTITLE7=Baby Please Don't Go - Big Joe Williams
TTITLE8=Guitar Blues - Lonnie Johnson
TTITLE9=Cherry Ball Blues - Skip James
TTITLE10=Bumble Bee Blues - Tampa Red
TTITLE11=Police Dog Blues - Blind Blake
TTITLE12=A Spoonful Blues - Charley Patton
TTITLE13=Hard Road Blues - Buddy Moss
TTITLE14=Broke And Hungry - Blind Lemon Jefferson
TTITLE15=Milk Cow Blues - Kokomo Arnold
TTITLE16=Sweet Home Chicago - Robert Johnson
TTITLE17=Guitar Rag - Sylvester Weaver
TTITLE18=Ease It To Me Blues - Barbecue Bob
TTITLE19=Nobody's Fault But Mine - Blind Willie Johnson
TTITLE20=Devil Got My Woman - Skip James
TTITLE21=Murderer's Home Blues - Blind Willie McTell
TTITLE22=Seminole Blues - Tampa Red
TTITLE23=Moon Going Down - Charley Patton
TTITLE24=Bye-Bye Blues - Tommy Johnson
EXTD=YEAR: 2011
EXTT0=
EXTT1=
EXTT2=
EXTT3=
EXTT4=
EXTT5=
EXTT6=
EXTT7=
EXTT8=
EXTT9=
EXTT10=
EXTT11=
EXTT12=
EXTT13=
EXTT14=
EXTT15=
EXTT16=
EXTT17=
EXTT18=
EXTT19=
EXTT20=
EXTT21=
EXTT22=
EXTT23=
EXTT24=
PLAYORDER=
